<?xml version="1.0" encoding="UTF-8" standalone="no"?><!DOCTYPE svg PUBLIC "-//W3C//DTD SVG 1.1//EN" "http://www.w3.org/Graphics/SVG/1.1/DTD/svg11.dtd"><svg width="100%" height="100%" viewBox="0 0 4555 4998" version="1.1" xmlns="http://www.w3.org/2000/svg" xmlns:xlink="http://www.w3.org/1999/xlink" xml:space="preserve" xmlns:serif="http://www.serif.com/" style="fill-rule:evenodd;clip-rule:evenodd;stroke-linejoin:round;stroke-miterlimit:2;"><path id="pUVsHdeCH" d="M2210,4972.75c-79,-32 -165,-121 -191,-197c-22,-66 -22,-107 1,-479l18,-296l-123,-224c-67,-123 -124,-225 -125,-227c-15,-18 -207,50 -720,255c-324,130 -597,236 -605,237c-8,1 -26,8 -40,16c-34,18 -146,16 -208,-4c-69,-23 -153,-100 -189,-174c-24,-49 -28,-69 -28,-142c1,-107 31,-177 106,-244c46,-41 97,-63 622,-272c315,-124 575,-230 580,-234c4,-3 6,-92 5,-197l-3,-191l-139,79c-169,95 -231,116 -500,169c-188,37 -214,40 -262,30c-70,-15 -141,-63 -176,-120c-34,-55 -59,-161 -40,-168c7,-2 10,-13 6,-26c-13,-52 63,-159 140,-198c22,-11 133,-40 248,-63l207,-43l309,-175l308,-175l310,-95c241,-74 433,-144 879,-317c508,-198 576,-222 630,-222c228,-4 356,262 214,442c-49,63 -57,66 -636,291l-473,183l-2,475l-3,476l177,322c97,177 182,339 189,360c16,48 15,119 -11,543c-23,374 -31,424 -83,492c-96,126 -251,171 -392,113Z" style="fill:#1f8b84;fill-opacity:0.94;fill-rule:nonzero;"/><path id="p146WMARc3" d="M4230,2690.75c-29,-8 -71,-40 -94,-72c-24,-34 -92,-261 -93,-309c0,-18 7,-41 16,-51c15,-17 -20,-73 -546,-868l-563,-850l-37,4c-34,5 -45,-1 -147,-81c-140,-110 -164,-140 -169,-214c-5,-74 8,-90 139,-176c111,-74 140,-84 193,-66c63,21 100,77 136,208c44,160 48,197 22,225l-20,22l563,850c364,550 568,849 576,846c58,-17 68,-13 156,54c156,120 193,167 193,240c0,61 -23,87 -137,162c-105,69 -147,86 -188,76Z" style="fill:#1f8b84;fill-opacity:0.94;fill-rule:nonzero;"/><path id="pUl3grln1" d="M1675,1603.75c-109,-29 -226,-116 -288,-214c-97,-151 -97,-375 -2,-525c105,-166 309,-259 497,-228c302,52 489,356 395,643c-51,153 -178,277 -331,322c-65,19 -206,20 -271,2Z" style="fill:#1f8b84;fill-opacity:0.94;fill-rule:nonzero;"/></svg>